<svg width="13" height="13" viewBox="0 0 13 13" fill="none" xmlns="http://www.w3.org/2000/svg">
<ellipse cx="6.5" cy="6.50004" rx="6.5" ry="6.50004" fill="#E6C8B4"></ellipse>
<path d="M6.88281 3.29688V9H6.67188V3.57812L5.03906 4.19141V3.96094L6.83984 3.29688H6.88281Z" fill="#1B1A17"></path>
<path d="M6.88281 3.29688H7.88281V2.29688H6.88281V3.29688ZM6.88281 9V10H7.88281V9H6.88281ZM6.67188 9H5.67188V10H6.67188V9ZM6.67188 3.57812H7.67188V2.13432L6.32026 2.64198L6.67188 3.57812ZM5.03906 4.19141H4.03906V5.63521L5.39068 5.12755L5.03906 4.19141ZM5.03906 3.96094L4.69307 3.0227L4.03906 3.26387V3.96094H5.03906ZM6.83984 3.29688V2.29688H6.66134L6.49386 2.35864L6.83984 3.29688ZM5.88281 3.29688V9H7.88281V3.29688H5.88281ZM6.88281 8H6.67188V10H6.88281V8ZM7.67188 9V3.57812H5.67188V9H7.67188ZM6.32026 2.64198L4.68745 3.25526L5.39068 5.12755L7.02349 4.51427L6.32026 2.64198ZM6.03906 4.19141V3.96094H4.03906V4.19141H6.03906ZM5.38505 4.89918L7.18583 4.23511L6.49386 2.35864L4.69307 3.0227L5.38505 4.89918ZM6.83984 4.29688H6.88281V2.29688H6.83984V4.29688Z" fill="#1B1A17"></path>
</svg>
